<svg width="1809" height="1283" viewBox="0 0 1809 1283" fill="none" xmlns="http://www.w3.org/2000/svg">
<path d="M335.325 559.881L167.495 520.471C158.665 518.401 152.795 524.571 154.385 534.261L184.485 718.401C186.065 728.091 194.505 737.621 203.335 739.691L371.155 779.101C379.985 781.171 385.855 775.011 384.275 765.321L354.175 581.181C352.595 571.501 344.155 561.961 335.325 559.891" stroke="#85878D" stroke-width="4" stroke-miterlimit="10"/>
<path d="M412.665 883.531L565.085 993.121C573.105 998.881 581.295 996.361 583.375 987.471L623.025 818.631C625.105 809.751 620.305 797.881 612.285 792.111L459.865 682.521C451.855 676.751 443.655 679.281 441.575 688.161L401.925 857.011C399.845 865.891 404.655 877.761 412.665 883.531" stroke="#85878D" stroke-width="4" stroke-miterlimit="10"/>
<path d="M742.425 566.101L574.595 526.691C565.765 524.621 559.895 530.791 561.485 540.481L591.585 724.621C593.165 734.311 601.605 743.841 610.435 745.911L778.255 785.321C787.085 787.391 792.955 781.231 791.375 771.541L761.275 587.401C759.695 577.721 751.255 568.181 742.425 566.111" stroke="#85878D" stroke-width="4" stroke-miterlimit="10"/>
<path d="M819.765 889.751L972.185 999.341C980.205 1005.1 988.395 1002.58 990.475 993.691L1030.13 824.851C1032.21 815.971 1027.4 804.101 1019.38 798.331L866.965 688.741C858.955 682.971 850.755 685.501 848.675 694.381L809.025 863.231C806.945 872.111 811.755 883.981 819.765 889.751" stroke="#85878D" stroke-width="4" stroke-miterlimit="10"/>
<path d="M1149.52 572.331L981.685 532.921C972.855 530.851 966.985 537.021 968.575 546.711L998.675 730.851C1000.26 740.541 1008.7 750.071 1017.53 752.141L1185.35 791.551C1194.18 793.621 1200.05 787.461 1198.47 777.771L1168.37 593.631C1166.79 583.951 1158.35 574.411 1149.52 572.341" stroke="#85878D" stroke-width="4" stroke-miterlimit="10"/>
<path d="M1226.86 895.981L1379.28 1005.57C1387.3 1011.33 1395.49 1008.81 1397.57 999.921L1437.22 831.081C1439.3 822.201 1434.5 810.331 1426.48 804.561L1274.06 694.971C1266.05 689.201 1257.85 691.731 1255.77 700.611L1216.12 869.461C1214.04 878.341 1218.85 890.211 1226.86 895.981" stroke="#85878D" stroke-width="4" stroke-miterlimit="10"/>
<path d="M1556.61 578.561L1388.78 539.151C1379.95 537.081 1374.08 543.251 1375.67 552.941L1405.77 737.081C1407.35 746.771 1415.79 756.301 1424.62 758.371L1592.44 797.781C1601.27 799.851 1607.14 793.691 1605.56 784.001L1575.46 599.861C1573.88 590.181 1565.44 580.641 1556.61 578.571" stroke="#85878D" stroke-width="4" stroke-miterlimit="10"/>
<path d="M1633.95 902.211L1786.37 1011.8C1794.39 1017.56 1802.58 1015.04 1804.66 1006.15L1844.31 837.311C1846.39 828.431 1841.59 816.561 1833.57 810.791L1681.15 701.201C1673.14 695.431 1664.94 697.961 1662.86 706.841L1623.21 875.691C1621.13 884.571 1625.94 896.441 1633.95 902.211" stroke="#85878D" stroke-width="4" stroke-miterlimit="10"/>
<path d="M1963.72 584.781L1795.89 545.371C1787.06 543.301 1781.19 549.471 1782.78 559.161L1812.88 743.301C1814.46 752.991 1822.89 762.521 1831.72 764.591L1999.55 804.001C2008.38 806.071 2014.25 799.911 2012.67 790.221L1982.57 606.081C1980.99 596.401 1972.55 586.861 1963.72 584.791" stroke="#85878D" stroke-width="4" stroke-miterlimit="10"/>
<path d="M1714.99 1078.99L1562.58 969.401C1554.56 963.641 1546.37 966.161 1544.29 975.051L1504.64 1143.89C1502.56 1152.77 1507.35 1164.64 1515.37 1170.41L1667.8 1280C1675.81 1285.77 1684.01 1283.24 1686.09 1274.36L1725.73 1105.51C1727.81 1096.63 1723 1084.76 1714.99 1078.99" stroke="#85878D" stroke-width="4" stroke-miterlimit="10"/>
<path d="M1307.89 1072.77L1155.47 963.181C1147.45 957.421 1139.26 959.941 1137.18 968.831L1097.53 1137.67C1095.45 1146.55 1100.25 1158.42 1108.27 1164.19L1260.69 1273.78C1268.7 1279.55 1276.9 1277.02 1278.98 1268.14L1318.63 1099.29C1320.71 1090.41 1315.9 1078.54 1307.89 1072.77" stroke="#85878D" stroke-width="4" stroke-miterlimit="10"/>
<path d="M900.805 1066.54L748.385 956.951C740.365 951.191 732.175 953.711 730.095 962.601L690.445 1131.44C688.365 1140.32 693.165 1152.19 701.185 1157.96L853.605 1267.55C861.615 1273.32 869.815 1270.79 871.895 1261.91L911.545 1093.06C913.625 1084.18 908.815 1072.31 900.805 1066.54" stroke="#85878D" stroke-width="4" stroke-miterlimit="10"/>
<path d="M493.705 1060.31L341.285 950.721C333.265 944.961 325.075 947.481 322.995 956.371L283.345 1125.21C281.265 1134.09 286.065 1145.96 294.085 1151.73L446.505 1261.32C454.515 1267.09 462.715 1264.56 464.795 1255.68L504.445 1086.83C506.525 1077.95 501.715 1066.08 493.705 1060.31" stroke="#85878D" stroke-width="4" stroke-miterlimit="10"/>
<path d="M1839.23 140.591L1686.81 31.0008C1678.79 25.2408 1670.6 27.7608 1668.52 36.6508L1628.87 205.491C1626.79 214.371 1631.59 226.241 1639.61 232.011L1792.03 341.601C1800.04 347.371 1808.24 344.841 1810.32 335.961L1849.97 167.111C1852.05 158.231 1847.24 146.361 1839.23 140.591" stroke="#85878D" stroke-width="4" stroke-miterlimit="10"/>
<path d="M1509.47 458.011L1677.31 497.421C1686.14 499.491 1692.01 493.321 1690.42 483.631L1660.32 299.491C1658.74 289.801 1650.3 280.271 1641.47 278.201L1473.65 238.791C1464.82 236.721 1458.95 242.881 1460.53 252.571L1490.62 436.711C1492.2 446.391 1500.64 455.931 1509.47 458.001" stroke="#85878D" stroke-width="4" stroke-miterlimit="10"/>
<path d="M1432.14 134.361L1279.72 24.7708C1271.7 19.0108 1263.51 21.5308 1261.43 30.4208L1221.78 199.261C1219.7 208.141 1224.5 220.011 1232.52 225.781L1384.94 335.371C1392.95 341.141 1401.15 338.611 1403.23 329.731L1442.88 160.881C1444.96 152.001 1440.15 140.131 1432.14 134.361" stroke="#85878D" stroke-width="4" stroke-miterlimit="10"/>
<path d="M1102.39 451.791L1270.22 491.201C1279.05 493.271 1284.92 487.101 1283.33 477.411L1253.23 293.271C1251.65 283.581 1243.21 274.051 1234.38 271.981L1066.56 232.571C1057.73 230.501 1051.86 236.661 1053.44 246.351L1083.54 430.491C1085.12 440.171 1093.56 449.711 1102.39 451.781" stroke="#85878D" stroke-width="4" stroke-miterlimit="10"/>
<path d="M1025.05 128.131L872.625 18.5408C864.605 12.7808 856.415 15.3008 854.335 24.1908L814.685 193.031C812.605 201.911 817.405 213.781 825.425 219.551L977.845 329.141C985.855 334.911 994.055 332.381 996.135 323.501L1035.79 154.651C1037.87 145.771 1033.06 133.901 1025.05 128.131" stroke="#85878D" stroke-width="4" stroke-miterlimit="10"/>
<path d="M695.285 445.561L863.115 484.971C871.945 487.041 877.815 480.871 876.225 471.181L846.125 287.041C844.545 277.351 836.105 267.821 827.275 265.751L659.455 226.341C650.625 224.271 644.755 230.431 646.335 240.121L676.435 424.261C678.015 433.941 686.455 443.481 695.285 445.551" stroke="#85878D" stroke-width="4" stroke-miterlimit="10"/>
<path d="M617.945 121.911L465.525 12.3208C457.505 6.56083 449.315 9.08085 447.235 17.9709L407.585 186.811C405.505 195.691 410.305 207.561 418.325 213.331L570.745 322.921C578.755 328.691 586.955 326.161 589.035 317.281L628.685 148.431C630.765 139.551 625.955 127.681 617.945 121.911" stroke="#85878D" stroke-width="4" stroke-miterlimit="10"/>
<path d="M288.185 439.331L456.015 478.741C464.845 480.811 470.715 474.641 469.125 464.951L439.025 280.811C437.445 271.121 429.005 261.591 420.175 259.521L252.355 220.111C243.525 218.041 237.655 224.201 239.235 233.891L269.335 418.031C270.915 427.711 279.355 437.251 288.185 439.321" stroke="#85878D" stroke-width="4" stroke-miterlimit="10"/>
<path d="M210.845 115.681L58.4251 6.09085C50.4051 0.33085 42.2151 2.85087 40.1351 11.7409L0.4851 180.581C-1.5949 189.461 3.2051 201.331 11.2251 207.101L163.645 316.691C171.655 322.461 179.855 319.931 181.935 311.051L221.585 142.201C223.665 133.321 218.855 121.451 210.845 115.681" stroke="#85878D" stroke-width="4" stroke-miterlimit="10"/>
</svg>
