<svg width="1442" height="1631" viewBox="0 0 1442 1631" fill="none" xmlns="http://www.w3.org/2000/svg">
<path fill-rule="evenodd" clip-rule="evenodd" d="M528.8 589.476C528.717 568.005 495.951 543.861 481.955 531.414C454.28 506.794 425.496 484.059 396.98 460.961C368.463 437.862 339.87 414.827 312.678 389.468C295.021 373.007 274.276 354.467 262.301 330.962C236.793 280.87 317.22 288.309 338.053 287.213C391.052 284.414 451.842 285.692 501.52 259.607C531.176 244.035 543.001 217.918 536.632 179.855C534.579 167.477 528.502 153.232 533.65 141.172C539.147 128.293 551.793 120.86 562.29 115.876C600.573 97.7183 644.59 95.6145 685.097 93.3353C728.775 90.8308 772.863 91.5634 816.234 91.3693C834.624 91.2879 853.83 83.2294 871.342 76.68C894.3 68.0956 916.986 58.4531 939.754 49.1299C989.843 28.6677 1041.46 7.11595 1094.45 1.919C1127.64 -1.33693 1163.91 3.06484 1189.69 31.3851C1202.63 45.6048 1209.41 66.7432 1216.89 85.5211C1225.95 108.206 1234.65 131.11 1244.29 153.438C1275.36 225.351 1319.72 295.622 1391.71 299.154C1402.6 299.686 1413.3 297.951 1424.14 297.626C1431.04 297.426 1437.19 299.46 1439.75 308.27C1446.2 330.367 1425.93 365.249 1417.61 382.781C1399.41 421.157 1378.88 457.811 1359.64 495.417C1346.92 520.287 1324.9 554.274 1324.67 584.492C1324.46 611.416 1353.82 630.876 1369.8 644.138C1384.78 656.554 1411.91 673.929 1413.56 699.188C1414.35 711.435 1407.73 721.585 1400.82 729.462C1388.7 743.237 1374.74 752.954 1363.84 768.671C1345.96 794.455 1331.02 829.932 1333.45 864.677C1335.14 888.752 1346.4 904.518 1360.72 919.589C1366.74 925.926 1371.63 930.409 1371.95 940.696C1372.46 957.032 1367.21 974.32 1362.89 989.466C1347.43 1043.67 1325.48 1096.09 1301.05 1145.02C1288.85 1169.48 1275.66 1193.86 1259.48 1214.73C1248.88 1228.43 1234.58 1244.73 1218.42 1244.71C1199.7 1244.71 1179.89 1236.47 1161.7 1230.31C1127.71 1218.8 1094.14 1205.48 1060.7 1191.83C983.372 1160.23 906.769 1126.08 830.892 1089.37C777.447 1063.46 722.867 1037.52 672.619 1003.08C662.82 996.322 653.57 988.437 644.996 979.536C635.834 970.187 624.466 966.005 612.938 962.887C541.39 943.533 463.005 958.391 391.16 967.708C372.924 970.068 354.688 972.441 336.4 974.094C320.679 975.516 301.858 979.592 286.578 973.468C256.471 961.415 282.791 916.991 293.918 898.889C333.095 835.154 383.64 781.231 430.49 726.181C452.766 699.964 475.21 673.817 496.274 646.116C507.243 631.715 528.871 608.298 528.8 589.476Z" stroke="#85878D" stroke-width="2"/>
<path fill-rule="evenodd" clip-rule="evenodd" d="M542.3 585.856C530.292 563.138 509.224 546.346 491.735 530.543C466.568 507.793 440.611 486.307 415.043 464.201C390.868 443.297 366.641 422.156 344.253 398.417C330.601 383.941 313.472 366.629 307.006 345.219C292.979 298.811 368.438 305.852 387.067 304.638C433.379 301.633 485.885 300.945 528.73 276.511C555.484 261.253 566.476 235.949 560.769 200.819C558.797 188.665 555.243 178.288 559.742 166.197C564.945 152.202 576.912 143.478 587.883 137.319C622.248 118.024 662.87 113.925 700.122 110.514C738.606 106.99 778.704 104.505 815.951 107.084C830.845 108.11 847.989 102.284 862.73 97.815C885.411 90.9305 907.861 82.9883 930.429 75.6031C976.294 60.5824 1023.35 46.1125 1071.07 44.4665C1105.51 43.2773 1141.43 49.7237 1170.09 74.6393C1199.13 99.9053 1212.02 139.072 1228.13 176.304C1255.94 240.674 1293.51 318.939 1357.87 332.539C1367.63 334.604 1377.01 333.484 1386.75 333.991C1391.77 334.247 1397.47 335.061 1400.02 341.088C1406.62 356.734 1388.53 385.343 1382.45 397.328C1365.63 430.449 1346.72 461.948 1329.1 494.43C1315.11 520.222 1297.37 548.881 1291.95 579.454C1285.38 616.555 1328.31 642.954 1343.4 669.077C1369.57 714.377 1319.99 740.188 1295.55 761.786C1267.48 786.583 1244.31 831.821 1269.47 870.186C1279.1 884.856 1290.94 893.599 1295.24 912.745C1301.96 942.686 1296.88 976.902 1291.42 1006.5C1283.21 1050.99 1270.2 1095 1252.52 1135.21C1239.86 1164 1218.85 1209.15 1188.08 1205.76C1167.36 1203.5 1146.3 1195.25 1126.13 1187.95C1095.93 1177.03 1066.11 1164.58 1036.45 1151.65C967.984 1121.88 900.27 1089.06 833.886 1052.96C788.591 1028.32 662.243 927.628 652.736 924.035C624.39 913.333 592.161 915.217 562.937 916.875C524.062 919.078 485.382 924.786 446.733 930.075C428.336 932.578 409.846 935.639 391.351 936.872C378.187 937.748 360.899 938.499 349.368 929.167C326.862 910.961 351.936 869.303 362.306 851.679C394.073 797.648 434.257 750.859 471.936 703.018C490.426 679.529 509.198 656.078 525.983 630.706C532.752 620.46 549.722 599.888 542.3 585.856Z" stroke="#85878D" stroke-width="2"/>
<path fill-rule="evenodd" clip-rule="evenodd" d="M558.913 574.205C526.119 528.742 480.857 494.93 441.792 456.96C422.185 437.898 402.455 418.315 385.545 395.609C376.748 383.802 365.763 368.871 364.069 352.412C359.539 308.383 427.552 314.336 447.908 312.665C487.265 309.422 531.727 306.962 567.433 284.493C589.248 270.758 599.991 248.214 595.914 218.584C594.106 205.437 591.292 194.269 595.914 181.36C600.597 168.282 610.354 159.054 620.235 152.136C648.628 132.241 683.913 125.88 715.88 121.141C753.381 115.621 791.164 113.466 828.924 114.693C861.996 115.751 894.908 103.85 927.199 96.0056C969.976 85.6196 1013.53 76.5484 1057.3 77.9194C1091.87 79.0087 1126.72 87.5666 1156.27 110.311C1186.3 133.474 1204.36 168.144 1220.64 205.556C1245.25 262.112 1275.91 337.901 1329.9 359.38C1337.75 362.51 1345.07 362.854 1353.17 363.399C1357.1 363.662 1362.18 363.743 1364.13 368.745C1368.83 380.79 1351.47 404.142 1346.63 412.28C1331.17 438.261 1314.42 463.071 1298.58 488.707C1283.79 512.64 1267.68 537.582 1258.49 565.628C1243.87 610.296 1290.61 636.414 1289.3 678.979C1288.48 705.404 1267.73 724.354 1251.3 737.463C1231.07 753.584 1201.93 764.182 1191.81 793.6C1184.26 815.511 1196.1 828.264 1205.22 844.891C1220.66 873.063 1221.72 911.251 1220.11 943.862C1217.94 987.928 1209.47 1032.65 1195.06 1073.15C1188.53 1091.51 1180.52 1110.61 1168.74 1124.87C1157.71 1138.24 1147.26 1141.66 1132.51 1138.93C1087.36 1130.54 1041.78 1107.16 998.482 1086.27C944.084 1060.03 890.435 1031.06 838.388 998.458C802.898 976.228 766.607 952.708 735.456 921.994C727.337 913.987 719.023 905.285 713.086 894.724C708.598 886.786 706.693 880.231 699.129 875.699C676.708 862.27 645.521 865.782 621.498 867.178C583.086 869.401 544.858 875.317 506.682 880.644C484.405 883.774 442.439 893.622 424.65 870.002C409.296 849.605 427.824 814.829 437.288 796.862C461.229 751.424 492.026 711.545 520.599 670.483C533.694 651.665 547.303 632.702 558.118 611.78C560.88 606.446 565.307 599.378 566.067 592.898C566.92 585.474 562.94 579.808 558.913 574.205Z" stroke="#85878D" stroke-width="2"/>
<path fill-rule="evenodd" clip-rule="evenodd" d="M561.733 584.788C531.43 544.591 494.922 511.567 462.39 473.951C447.804 457.085 433.074 439.392 421.959 418.817C415.981 407.753 409.632 393.825 411.281 380.073C416.011 340.602 471.949 344.167 494.547 341.855C528.127 338.459 566.705 335.039 596.396 313.756C615.847 299.816 623.14 279.228 619.509 252.676C615.61 224.195 624.326 203.52 644.162 187.631C669.031 167.726 700.423 159.613 729.298 153.849C764.087 146.938 799.316 143.874 834.557 144.696C868.83 145.498 902.035 138.493 936.082 133.938C981.224 127.905 1027.81 124.929 1072.45 137.296C1111.31 148.066 1146.41 171.799 1172.72 208.5C1200.2 246.806 1213.81 295.067 1236.12 337.445C1250.04 363.877 1269.45 398.843 1295.46 409.118C1304.14 412.545 1319.94 407.922 1313.02 424.781C1309.06 434.424 1301.64 442.882 1295.79 450.763C1286.33 463.5 1276.55 475.887 1266.93 488.448C1246.43 515.226 1224.47 542.573 1209.11 574.282C1189.74 614.204 1218.53 644.928 1215.02 685.408C1213.13 707.192 1200.71 724.578 1187.58 738.236C1179.08 747.082 1169.77 754.745 1160.28 761.893C1150.36 769.361 1138.62 775.05 1129.98 784.705C1117.65 798.444 1123 814.709 1125.31 832.471C1129.38 863.685 1130.27 895.393 1127.97 926.875C1125.16 965.462 1118.56 1005.15 1104.65 1040.22C1099.25 1053.87 1092.39 1068.34 1082.22 1077.5C1072.05 1086.65 1061.52 1086.02 1049.86 1083.27C1015.28 1075.12 980.772 1056.17 947.967 1038.21C906.909 1015.72 866.658 990.592 828.219 962.004C801.686 942.268 775.066 920.948 752.868 894.189C746.411 886.401 740.269 878.063 735.302 868.752C731.892 862.368 730.063 854.129 725.122 849.33C709.663 834.35 678.625 838.824 660.495 839.694C624.311 841.43 588.697 849.681 552.56 851.686C532.837 852.782 501.949 855.539 487.465 835.058C473.844 815.805 486.181 785.482 494.322 766.93C510.32 730.454 531.815 697.957 551.081 664.049C559 650.097 567.68 635.499 572.811 619.567C577.372 605.37 569.499 595.095 561.733 584.788Z" stroke="#85878D" stroke-width="2"/>
<path fill-rule="evenodd" clip-rule="evenodd" d="M569.185 585.446C545.065 550.073 515.988 518.673 491.693 482.725C477.472 461.673 452.982 426.281 463.98 396.602C476.045 363.988 518.102 363.1 542.412 360.472C571.346 357.344 605.325 353.071 630.086 332.707C637.918 326.269 644.589 317.748 647.417 306.525C650.445 294.513 647.135 284.002 646.704 271.978C645.8 246.753 658.148 226.501 674.488 212.594C697.582 192.93 726.459 183.634 753.736 177.152C784.638 169.842 816.054 166.238 847.533 166.392C877.616 166.517 907.382 165.703 937.496 164.765C976.879 163.514 1016.82 165.534 1055.02 178.291C1092.65 190.866 1126.87 214.433 1153.74 249.099C1179.96 282.926 1197.65 324.274 1213.14 366.39C1221.93 390.296 1236.79 426.019 1257.76 438.093C1267.08 443.467 1276.23 443.098 1266.32 457.074C1253.83 474.673 1237 488.793 1222.54 503.846C1201.68 525.568 1180.29 547.715 1162.78 573.54C1151.6 590.032 1146.62 606.035 1147.39 627.388C1147.98 643.654 1150.68 659.751 1149.32 676.08C1146.12 714.405 1121.37 740.688 1099.49 765.162C1085.41 780.903 1072.55 792.908 1065.31 815.299C1056.74 841.763 1053.14 870.554 1047.41 898.032C1041.12 928.205 1033.85 959.593 1020.12 986.169C1007.9 1009.83 993.029 1020.44 970.777 1014.07C936.069 1004.13 901.86 979.657 871.047 957.015C839.686 933.98 808.863 908.079 782.875 876.416C768.844 859.318 759.268 839.242 746.808 820.874C731.135 797.813 695.678 806.547 674.606 808.499C639.627 811.74 529.562 835.989 539.718 757.448C543.957 724.666 560.651 694.41 572.86 665.482C577.92 653.476 585.243 639.068 586.388 625.31C587.635 610.327 576.437 596.094 569.185 585.446Z" stroke="#85878D" stroke-width="2"/>
<path fill-rule="evenodd" clip-rule="evenodd" d="M581.92 588.449C563.488 556.395 541.429 526.111 525.613 491.49C515.353 469.069 505.278 439.111 518.513 415.387C533.452 388.615 566.392 382.375 590.595 378.963C615.532 375.452 645.302 372.497 665.683 352.198C672.168 345.732 677.513 337.012 678.508 326.571C679.468 316.556 676.759 306.541 677.657 296.344C679.668 273.447 691.051 254.581 705.728 240.898C749.143 200.418 813.761 191.417 866.144 190.359C892.363 189.833 919.347 192.593 945.736 194.571C979.979 197.138 1014.27 202.646 1046.93 215.923C1116.37 244.14 1162.91 306.723 1195.41 384.597C1205.64 409.109 1213.47 435.63 1229.5 455.329C1237.76 465.501 1235.96 472.805 1227.51 482.082C1214.3 496.579 1198.18 507.658 1183.52 519.758C1162.67 536.965 1141.37 554.429 1122.93 575.042C1110.21 589.251 1101.19 602.94 1098.45 624.247C1096.5 639.439 1096.95 654.919 1095.78 670.204C1093.54 699.242 1085.88 728.061 1072.32 752.147C1061.55 771.239 1048.73 788.59 1035.47 805.134C1018.24 826.673 1003.66 848.556 990.578 874.12C973.228 907.958 948.85 970.378 907.984 953.859C862.912 935.632 820.666 889.318 791.748 844.443C782.037 829.377 774.065 810.899 760.968 799.788C741.361 783.182 721.467 783.764 698.146 783.833C663.231 783.927 587.255 793.172 586.435 729.375C586.111 704.1 595.079 680.201 599.373 655.889C604.215 628.66 594.509 610.295 581.92 588.449Z" stroke="#85878D" stroke-width="2"/>
<path fill-rule="evenodd" clip-rule="evenodd" d="M595.65 591.308C577.418 549.53 536.535 480.88 567.63 434.423C584.055 409.872 613.107 400.646 637.478 395.147C657.09 390.7 680.743 389.03 695.561 370.177C706.453 356.316 701.618 336.143 705.791 318.791C710.97 297.28 722.858 279.678 737.466 266.449C778.287 229.475 835.046 218.128 884.152 215.713C935.153 213.211 991.347 224.915 1039.34 247.427C1099.18 275.506 1144.01 328.674 1175.36 396.004C1181.14 408.433 1186.4 421.187 1191.95 433.766C1195.69 442.205 1201.22 450.367 1204.16 459.243C1209.06 474.043 1203.29 486.14 1194.04 495.786C1180.73 509.672 1164.39 519.555 1149.22 529.976C1128.48 544.238 1107.28 558.243 1087.98 574.975C1075.02 586.235 1061.45 598.363 1056.81 617.898C1053.64 631.221 1052.98 645.333 1053.1 659.132C1053.34 688.718 1052.07 712.644 1040.75 739.741C1022.11 784.228 993.462 824.229 963.193 857.512C939.438 883.634 901.851 924.211 867.24 906.746C836.186 891.108 818.021 853.678 797.561 823.416C787.614 808.704 776.44 795.268 763.31 784.803C746.756 771.611 731.173 766.075 711.56 763.917C678.551 760.283 628.778 759.338 618.573 711.049C614.806 693.228 616.957 674.769 614.98 656.717C612.399 632.848 604.848 612.381 595.65 591.308Z" stroke="#85878D" stroke-width="2"/>
<path fill-rule="evenodd" clip-rule="evenodd" d="M614.607 592.855C601.625 547.142 584.569 489.531 615.926 448.902C631.114 429.221 652.479 418.218 673.156 409.996C687.965 404.104 711.478 402.369 720.558 384.253C727.226 370.921 728.149 352.529 734.182 338.245C742.471 318.608 755.028 302.433 769.76 289.771C808.139 256.776 858.126 244.026 903.712 240.376C1002.76 232.454 1103.55 295.544 1156.55 399.344C1172.35 430.285 1192.75 463.217 1167.21 494.828C1139.33 529.313 1097.33 545.47 1064.04 569.973C1051.33 579.329 1035.12 590.575 1028.03 607.514C1023.76 617.696 1023.47 630.471 1023.28 641.68C1022.76 670.229 1020.82 695.903 1011.41 722.542C996.869 763.709 973.689 801.688 947.42 832.798C924.512 859.925 891.842 891.805 858.572 872.249C833.063 857.22 816.885 825.321 797.064 801.807C775.007 775.619 747.729 757.973 717.772 749.35C688.631 740.984 656.669 735.342 641.312 699.798C636.044 687.606 630.54 671.819 628.565 658.324C625.377 636.075 620.709 614.179 614.607 592.855V592.855Z" stroke="#85878D" stroke-width="2"/>
<path fill-rule="evenodd" clip-rule="evenodd" d="M635.746 593.177C629.739 547.016 629.072 498.884 656.978 462.502C670.001 445.53 686.465 433.471 703.113 422.546C715.361 414.508 728.01 407.727 737.158 394.548C745.633 382.346 752.076 368.178 760.259 355.657C771.053 339.063 783.968 324.698 798.509 313.115C834.956 284.134 879.295 270.579 921.713 265.878C942.247 263.592 964.521 262.403 984.916 268.632C1004.61 274.643 1024.09 284.146 1042.2 295.228C1080.7 318.762 1114.07 353.227 1138.26 396.802C1154.85 426.691 1163.81 455.753 1142.34 486.074C1118.12 520.251 1080.15 539.109 1048.86 561.291C1027.4 576.504 1003.34 591.417 999.331 623.748C996.138 649.473 993.546 673.89 985.286 698.207C972.993 734.074 954.918 766.565 932.134 793.752C911.297 818.519 884.936 839.537 855.131 826.308C831.517 815.809 813.196 792.287 792.564 775.471C769.571 756.688 744.309 746.333 717.707 738.006C693.8 730.493 671.29 718.949 655.838 694.438C652.676 689.429 649.355 683.976 646.916 678.373C643.805 671.223 644.046 664.136 643.436 656.122C641.844 634.973 638.461 614.069 635.746 593.177Z" stroke="#85878D" stroke-width="2"/>
<path fill-rule="evenodd" clip-rule="evenodd" d="M659.053 589.404C659.567 545.558 668.213 504.12 691.893 469.951C702.016 455.334 714.105 443.294 725.245 429.899C734.214 419.101 742.691 409.067 753.004 400.169C777.469 379.099 797.352 351.834 823.352 333.071C858.059 307.988 897.815 294.123 937.263 288.58C956.525 285.871 976.423 284.924 995.911 287.984C1012.65 290.612 1028.68 299.836 1043.55 309.274C1072.69 327.76 1100.99 354.035 1119.92 387.276C1161.64 460.563 1079.38 513.847 1037.16 545.05C1017.74 559.404 988.076 576.028 980.123 604.46C974.438 624.771 970.974 645.427 963.652 665.111C943.984 717.974 904.059 780.149 850.855 771.872C828.088 768.335 807.338 753.969 786.085 744.324C764.2 734.391 741.613 728.854 718.867 722.778C697.609 717.103 680.666 709.026 666.935 687.373C660.372 677.032 660.952 664.653 660.367 651.968C659.413 631.13 658.823 610.173 659.053 589.404Z" stroke="#85878D" stroke-width="2"/>
<path fill-rule="evenodd" clip-rule="evenodd" d="M680.276 583.788C688.824 517.607 720.569 445.356 767.248 406.921C822.155 361.71 881.639 323.638 947.242 312.694C977.657 307.619 1010.97 305.122 1039.67 321.717C1061.52 334.339 1086.89 353.206 1098.91 379.738C1128.31 444.636 1062.9 496.299 1025.63 526.324C1005.57 542.487 980.03 558.238 964.907 581.841C956.134 595.527 951.654 613.63 944.571 628.661C923.104 674.211 887.768 710.949 843.75 717.52C823.398 720.555 802.897 716.8 782.699 713.815C762.024 710.762 741.091 709.103 720.544 704.842C704.142 701.438 684.812 695.674 678.771 674.267C671.153 647.29 676.788 610.814 680.276 583.788Z" stroke="#85878D" stroke-width="2"/>
<path fill-rule="evenodd" clip-rule="evenodd" d="M701.089 573.156C713.555 510.935 739.953 450.242 784.33 413.097C807.863 393.4 835.182 379.804 861.41 366.37C891.14 351.145 922.203 339.327 953.929 333.465C993.431 326.163 1057.41 319.58 1078.04 374.474C1098.53 428.961 1046.77 477.184 1016.16 504.666C996.532 522.271 975.528 538.429 956.778 557.674C946.611 568.108 938.778 580.164 930.174 592.402C906.394 626.309 872.493 653.151 837.938 667.481C804.448 681.372 763.018 687.522 727.666 682.931C712.413 680.958 701.51 674.301 696.897 655.375C690.505 629.064 695.935 598.859 701.089 573.156Z" stroke="#85878D" stroke-width="2"/>
<path fill-rule="evenodd" clip-rule="evenodd" d="M721.769 556.398C734.153 501.614 760.864 451.577 799.827 418.697C843.502 381.838 899.741 361.356 951.431 350.941C978.907 345.409 1038.45 330.41 1052.45 373.337C1066.46 416.265 1025.97 458.568 1002.67 481.856C974.389 510.078 943.898 537.326 913.443 562.647C886.982 584.663 858.748 607.171 830.087 624.172C813.923 633.817 797.084 641.692 779.771 647.704C766.951 652.119 750.65 658.705 737.209 655.418C703.308 647.117 715.846 582.592 721.769 556.398Z" stroke="#85878D" stroke-width="2"/>
<path fill-rule="evenodd" clip-rule="evenodd" d="M747.295 539.993C774.467 436.391 860.557 385.437 943.447 367.677C962.708 363.555 1016.7 348.691 1027.47 380.339C1037.9 411.024 1004.72 447.413 989.188 464.654C941.053 518.079 881.582 557.69 825.228 596.933C807.638 609.182 775.913 635.763 754.093 623.501C730.402 610.164 741.666 561.475 747.295 539.993Z" stroke="#85878D" stroke-width="2"/>
<path fill-rule="evenodd" clip-rule="evenodd" d="M775.128 520.052C798.758 443.757 867.489 399.999 930.68 385.573C946.157 382.044 985.465 371.054 997.188 392.345C1008.04 412.04 982.148 440.578 972.462 451.918C950.9 477.17 925.345 497.973 900.1 517.968C876.758 536.468 853.164 555.431 828.602 571.076C815.666 579.312 791.403 596.886 776.702 584.169C760.875 570.488 769.881 536.993 775.128 520.052Z" stroke="#85878D" stroke-width="2"/>
<path fill-rule="evenodd" clip-rule="evenodd" d="M805.798 497.762C823.809 447.938 872.046 415.584 914.597 404.833C926.047 401.946 950.793 394.457 960.452 407.763C969.344 420.017 955.013 437.982 948.652 446.279C920.463 483.053 879.183 515.902 841.361 536.077C831.852 541.149 814.757 551.105 804.975 540.867C794.941 530.354 801.661 509.202 805.798 497.762Z" stroke="#85878D" stroke-width="2"/>
<path fill-rule="evenodd" clip-rule="evenodd" d="M838.335 476.833C848.484 452.092 875.009 433.426 896.981 427.484C912.444 423.306 931.031 426.915 917.555 448.451C904.167 469.822 879.327 489.342 858.273 497.995C842.21 504.594 829.62 498.084 838.335 476.833Z" stroke="#85878D" stroke-width="2"/>
<path fill-rule="evenodd" clip-rule="evenodd" d="M15.3417 648.189C14.6908 599.31 -6.60479 548.512 3.91228 498.707C12.5484 457.803 56.0261 454.388 82.1086 435.856C102.835 421.134 114.598 395.052 125.807 370.028C135.878 347.562 144.924 324.421 155.533 302.324C162.401 288.039 174.194 259.988 189.089 259.481C203.347 258.993 216.422 280.853 224.704 293.774C235.503 310.617 245.077 328.574 255.563 345.686C273.235 374.55 294.439 395.916 318.717 416.136C346.346 439.144 374.43 461.366 402.971 482.802C423.985 498.632 445.142 514.344 465.341 531.737C478.011 542.651 505.974 563.128 506.102 583.249C506.164 592.849 498.706 603.482 493.678 611.156C485.171 624.147 475.474 636.024 465.746 647.645C447.628 669.291 428.741 689.956 410.06 710.871C385.812 738.015 362.651 764.715 341.335 795.531C319.296 827.429 298.242 860.377 276.756 892.875C262.206 914.891 247.67 939.615 226.682 953.124C200.395 970.011 178.817 952.205 152.233 951.998C129.364 951.817 131.05 887.171 128.144 869.196C125.228 851.002 118.8 834.065 116.31 815.827C113.204 793.06 113.163 769.769 112.399 746.759C111.471 718.614 111.102 691.82 86.4446 681.087C72.4116 674.989 57.2306 673.707 42.7055 670.054C33.2955 667.684 15.5467 663.631 15.3417 648.189Z" stroke="#85878D" stroke-width="2"/>
<path fill-rule="evenodd" clip-rule="evenodd" d="M26.5849 639.494C24.1878 598.522 10.0258 546.08 23.4179 503.786C34.8594 467.643 70.6418 462.958 94.7364 443.972C114.627 428.312 123.481 402.687 133.424 377.512C141.401 357.317 149.136 336.928 158.191 317.378C164.864 302.971 175.053 278.649 188.928 275.667C201.401 272.986 214.778 294.459 221.779 305.383C231.994 321.331 240.73 338.651 249.754 355.607C265.61 385.392 281.846 412.176 305.052 434.056C328.362 456.03 353.863 472.46 379.636 489.561C399.798 502.941 419.858 516.709 439.015 532.155C453.284 543.656 473.801 558.376 480.33 578.884C485.499 595.108 459.285 622.03 451.555 631.532C435.642 651.069 418.78 669.41 401.887 687.638C381.294 709.85 360.043 729.274 341.856 754.612C309.328 799.912 282.139 856.325 240.284 889.994C215.039 910.301 186.946 915.494 158.869 912.456C147.75 911.253 145.081 892.105 143.68 880.936C141.35 862.382 141.057 843.509 139.265 824.88C137.587 807.442 133.86 790.874 130.858 773.773C127.819 756.447 126.967 738.695 124.729 721.25C123.343 710.42 121.972 697.817 115.91 689.11C109.638 680.096 99.2893 676.319 90.2449 673.45C73.2597 668.114 28.2789 668.408 26.5849 639.494Z" stroke="#85878D" stroke-width="2"/>
<path fill-rule="evenodd" clip-rule="evenodd" d="M41.0547 622.342C37.0232 584.733 31.3792 537.89 47.8029 503.239C61.2273 474.907 89.8583 468.795 110.308 450.335C127.317 434.983 133.742 410.567 142.185 387.878C149.113 369.267 156.077 350.575 164.474 332.865C170.842 319.434 179.048 301.223 191.692 296.538C202.503 292.534 214.715 310.469 220.708 319.396C230.913 334.61 239.232 351.657 247.496 368.479C261.013 396.004 273.451 425.406 292.689 447.795C311.383 469.521 333.589 482.345 356.211 496.765C373.539 507.812 390.758 519.285 407.085 532.46C419.621 542.569 435.156 554.549 441.688 571.371C447.337 585.878 432.834 603.05 425.588 613.284C413.622 630.174 400.341 645.67 387.246 661.228C373.113 678.012 357.459 693.495 343.783 710.692C315.024 746.881 292.047 786.949 256.601 814.675C233.645 832.635 202.754 848.95 175.618 846.016C156.102 843.901 157.386 791.216 155.512 774.381C152.431 746.856 146.478 717.936 137.024 692.582C128.904 670.855 109.61 664.156 91.8612 659.282C80.7426 656.223 69.0899 654.572 58.336 649.842C45.8873 644.362 42.7443 638.107 41.0547 622.342Z" stroke="#85878D" stroke-width="2"/>
<path fill-rule="evenodd" clip-rule="evenodd" d="M54.5523 604.713C52.152 572.916 52.6917 535.316 68.24 507.81C81.8661 483.718 106.127 477.375 123.382 458.396C136.848 443.589 142.137 419.447 149.379 399.865C158.23 375.924 170.633 331.704 192.961 322.695C213.732 314.319 235.453 367.824 242.973 383.779C254.877 409.032 264.833 436.725 279.271 460.046C291.705 480.123 308.364 491.222 326.045 503.149C348.589 518.382 382.816 536.445 394.869 566.134C403.854 588.256 374.638 621.145 364.661 636.472C354.227 652.484 346.368 671.463 335.6 686.91C318.607 711.284 291.073 730.909 268.339 745.886C246.237 760.454 217.535 776.578 192.463 775.618C175.984 774.991 172.848 743.947 169.333 728.783C164.296 707.225 157.598 687.907 143.211 673.245C128.568 658.319 111.308 651.285 93.1637 645.131C83.8501 641.994 73.2258 639.547 64.8939 633.21C55.6883 626.315 55.4775 616.935 54.5523 604.713Z" stroke="#85878D" stroke-width="2"/>
<path fill-rule="evenodd" clip-rule="evenodd" d="M70.9981 586.386C71.1313 558.915 76.2802 529.622 91.5477 508.433C104.264 490.783 124.168 484.883 136.341 466.84C145.983 452.556 150.891 432.503 157.346 415.915C165.241 395.587 176.405 360.075 196.037 353.02C215.198 346.153 232.146 385.267 239.493 400.743C250.252 423.438 258.962 447.493 269.818 470.124C278.323 487.88 288.723 499.324 302.571 510.768C318.827 524.209 341.508 539.099 350.192 561.338C356.453 577.439 341.298 603.167 335.796 617.352C332.107 626.879 328.731 636.556 326.876 646.882C325.431 654.924 325.288 662.366 321.102 669.271C310.563 686.639 287.457 688.905 271.78 694.631C250.959 702.229 228.867 710.863 207.078 712.511C193.686 713.541 186.851 698.489 179.207 687.9C170.175 675.383 157.387 666.38 146.218 656.934C131.479 644.448 115.438 636.681 98.8432 628.727C91.3581 625.137 82.5665 621.616 76.767 614.48C70.7112 607.082 70.952 596.3 70.9981 586.386Z" stroke="#85878D" stroke-width="2"/>
<path fill-rule="evenodd" clip-rule="evenodd" d="M88.2706 570.078C90.9169 547.007 99.1636 524.956 113.093 508.646C123.77 496.125 137.951 489.075 146.52 474.03C154.505 460.006 160.07 444.06 166.665 429.065C173.645 413.212 184.015 386.716 200.113 382.403C217.463 377.757 230.828 404.485 238.229 419.298C247.578 438.018 254.681 458.159 263.04 477.524C269.338 491.957 277.371 505.158 286.873 516.685C296.837 528.838 310.351 540.477 315.392 557.187C319.849 571.987 311.51 589.893 310.038 604.901C308.464 620.935 311.223 637.776 302.494 651.544C284.493 679.937 239.316 674.672 213.489 675.279C188.005 675.905 167.517 658.531 146.895 642.002C133.273 631.09 119.088 621.849 105.123 611.681C90.8861 601.307 85.9422 590.382 88.2706 570.078Z" stroke="#85878D" stroke-width="2"/>
<path fill-rule="evenodd" clip-rule="evenodd" d="M104.318 556.873C112.144 523.449 136.586 505.685 154.059 480.426C168.356 459.748 179.076 416.925 203.153 411.26C230.49 404.831 246.854 461.571 256.358 483.465C266.904 507.746 285.685 527.497 293.496 553.201C297.601 566.692 294.076 579.28 291.889 592.765C289.493 607.572 287.692 622.711 279.42 634.629C263.137 658.083 231.336 657.92 208.434 658.566C184.726 659.236 163.753 643.164 144.863 627.122C124.829 610.135 96.3027 591.148 104.318 556.873Z" stroke="#85878D" stroke-width="2"/>
<path fill-rule="evenodd" clip-rule="evenodd" d="M117.425 547.81C126.244 523.996 144.774 504.637 159.81 486.361C172.361 471.125 185.862 440.454 204.997 438.267C227.487 435.689 241.117 468.44 249.966 488.522C258.676 508.256 271.226 529.092 276.049 550.75C281.078 573.311 267.685 603.696 254.913 619.66C240.667 637.463 217.361 644.04 197.362 643.33C176.423 642.608 157.21 627.895 141.352 612.634C124.398 596.321 107.17 575.454 117.425 547.81Z" stroke="#85878D" stroke-width="2"/>
<path fill-rule="evenodd" clip-rule="evenodd" d="M129.588 543.326C138.011 523.52 152.612 506.765 166.074 491.82C176.463 480.282 191.794 460.663 206.783 460.182C223.272 459.652 237.247 476.12 243.802 492.999C250.264 509.648 257.073 530.521 258.041 548.786C260.141 588.561 217.374 633.116 185.259 629.49C154.811 626.052 112.793 582.789 129.588 543.326Z" stroke="#85878D" stroke-width="2"/>
<path fill-rule="evenodd" clip-rule="evenodd" d="M140.835 541.142C152.456 515.336 180.681 478.546 206.813 477.673C236.807 476.674 244.337 517.614 240.427 547.283C236.455 577.564 201.874 621.394 174.3 615.471C147.388 609.692 127.064 571.747 140.835 541.142Z" stroke="#85878D" stroke-width="2"/>
<path fill-rule="evenodd" clip-rule="evenodd" d="M152.712 536.97C162.55 515.363 183.545 488.374 205.441 487.557C231.532 486.591 231.04 521.156 225.123 542.669C218.971 565.006 191.876 603.156 169.03 597.132C146.816 591.252 143.283 557.679 152.712 536.97Z" stroke="#85878D" stroke-width="2"/>
<path fill-rule="evenodd" clip-rule="evenodd" d="M163.056 534.483C169.55 519.066 185.803 499.579 201.254 498.956C220.14 498.207 216.468 525.622 211.589 538.854C205.789 554.599 186.348 581.957 170.033 577.524C153.97 573.159 157.698 547.186 163.056 534.483Z" stroke="#85878D" stroke-width="2"/>
<path fill-rule="evenodd" clip-rule="evenodd" d="M1051.47 1415.39C1009.67 1446.32 962.413 1471.85 917.851 1497.8C852.729 1535.73 786.648 1572.63 718.222 1600.88C681.536 1616.02 633.998 1637.85 594.634 1625.98C580.241 1621.65 567.116 1608.53 554.212 1600.01C536.418 1588.26 518.362 1577.09 500.337 1565.9C464.18 1543.46 427.909 1521.25 392.372 1497.38C375.261 1485.88 358.657 1471.39 340.843 1461.58C330.432 1455.85 317.974 1458.53 306.85 1458.89C281.083 1459.74 255.331 1461.34 229.579 1462.7C198.08 1464.37 166.509 1466.14 134.974 1465.48C120.752 1465.18 85.9177 1468.26 78.0879 1453.32C73.8755 1445.27 83.8038 1430.76 88.4062 1424.05C96.8568 1411.71 106.57 1400.59 116.154 1389.59C138.32 1364.14 161.861 1339.9 181.563 1311.47C191.687 1296.85 204.95 1279 198.341 1259.05C191.671 1238.89 180.116 1221.44 173.066 1201.36C164.949 1178.25 161.583 1154.2 157.751 1129.69C154.913 1111.58 148.305 1095.53 142.091 1078.83C135.226 1060.37 128.114 1041.76 123.348 1022.29C120.197 1009.44 115.113 986.307 126.134 978.167C141.793 966.592 171.158 975.965 189.008 979.374C213.678 984.079 238.168 990.073 262.77 995.235C280.631 998.989 298.554 1003.11 316.712 1003.54C345.984 1004.25 375.353 1001.8 404.548 999.527C458.608 995.31 512.28 989.591 566.521 989.591C614.043 989.591 723.861 1056.64 749.567 1068.45C800.876 1092.02 853.55 1114.36 902.104 1145.72C915.239 1154.21 935.455 1165.52 942.367 1183C946.63 1193.76 944.67 1199.99 954.727 1206.93C968.447 1216.39 986.026 1220.11 1001.21 1224.35C1025.67 1231.17 1050.32 1236.94 1074.89 1243.12C1124.59 1255.57 1173.95 1269.66 1223.44 1283.22C1238.41 1287.32 1256.51 1288.23 1270.77 1295.45C1279.97 1300.08 1279.01 1305.92 1271.9 1312.96C1259.41 1325.33 1241.92 1332.19 1227.17 1339.24C1205.56 1349.57 1183.6 1358.79 1161.63 1367.87C1139.66 1376.96 1117.58 1385.76 1095.6 1394.86C1081.08 1400.86 1064.52 1405.73 1051.47 1415.39Z" stroke="#85878D" stroke-width="2"/>
<path fill-rule="evenodd" clip-rule="evenodd" d="M1017.07 1408.58C972.854 1439.58 923.772 1464.27 876.454 1488.36C815.896 1519.21 753.968 1548.13 690.162 1567.41C652.698 1578.73 608.496 1591.22 570.216 1578.25C556.56 1573.62 546.357 1563.21 534.651 1554.02C521.308 1543.54 507.451 1533.94 493.595 1524.48C465.071 1505.02 436.246 1486.22 407.12 1468.09C391.693 1458.45 374.711 1445.54 357.283 1442.19C343.426 1439.53 327.686 1443.38 313.768 1444.5C288.703 1446.52 263.644 1448.6 238.569 1450.37C209.634 1452.4 180.618 1454.28 151.622 1453.96C135.461 1453.77 107.717 1456.78 96.2883 1444.04C86.3168 1432.92 122.621 1392.72 129.005 1385.09C148.943 1361.24 169.912 1338.53 188.47 1313.03C199.437 1297.99 212.791 1279.7 217.415 1259.77C221.351 1242.79 213.755 1223.43 209.27 1207.73C203.661 1188.06 199.134 1167.68 192.617 1148.42C186.812 1131.27 177.575 1115.99 169.461 1100.39C160.536 1083.24 151.499 1065.8 144.873 1047.08C140.814 1035.57 134.096 1016.28 142.164 1005.3C151.483 992.648 180.212 1000.92 192.021 1002.72C215.978 1006.43 239.749 1011.95 263.541 1016.88C303.058 1025.08 340.732 1032.25 380.972 1030.53C433.375 1028.29 485.727 1023.01 538.12 1020.09C557.468 1019 577.124 1016.81 596.487 1017.99C607.587 1018.68 616.04 1022.81 622.496 1032.14C631.313 1044.87 651.62 1051.92 665.743 1059.23C687.765 1070.61 710.064 1081.2 732.301 1091.93C781.117 1115.48 830.872 1138.19 877.168 1168.66C891.814 1178.3 908.586 1189.04 919.42 1204.96C925.465 1213.84 923.941 1222.39 927.631 1231.83C932.517 1244.24 948.58 1249.84 958.182 1253.9C976.714 1261.75 996.005 1267 1015.15 1271.93C1058.46 1283.07 1101.88 1290.39 1145.9 1295.79C1156.21 1297.04 1196.83 1301.38 1175.5 1322.31C1151.93 1345.44 1117.89 1356.77 1090.14 1369.8C1065.14 1381.52 1040.12 1392.42 1017.07 1408.58Z" stroke="#85878D" stroke-width="2"/>
<path fill-rule="evenodd" clip-rule="evenodd" d="M955.963 1402.85C914.4 1430.12 868.358 1450.46 823.594 1469.92C769.275 1493.54 713.594 1514.59 656.624 1526.38C620.836 1533.78 581.379 1539.47 545.832 1527.17C521.558 1518.77 502.78 1496.08 481.459 1480.46C460.138 1464.85 437.954 1450.19 415.107 1437.98C400.928 1430.39 385.674 1422.76 369.897 1423.76C331.535 1426.18 293.219 1431.97 254.816 1434.78C229.411 1436.66 203.954 1438.2 178.472 1437.74C163.105 1437.46 141.995 1438.59 128.391 1428.73C113.353 1417.83 193.422 1324.73 200.99 1314.25C219.963 1287.98 242.938 1253.11 239.27 1215.74C235.761 1180.02 220.553 1153.35 203.353 1125.36C193.591 1109.44 162.288 1066.91 173.889 1046.2C180.516 1034.37 202.361 1038.47 212.739 1039.27C233.192 1040.86 253.531 1044.28 273.876 1047.24C303.54 1051.54 334.021 1058.18 363.814 1060.12C384.56 1061.47 405.428 1059.67 426.21 1059.63C456.007 1059.58 485.805 1059.85 515.603 1060.18C540.623 1060.45 565.853 1060.18 590.786 1063.11C606.286 1064.91 618.051 1068.96 629.169 1080.39C638.843 1090.34 653.438 1096.16 665.769 1102.49C686.134 1112.93 706.766 1122.6 727.332 1132.44C770.39 1153.03 813.941 1173.2 855.154 1198.93C873.968 1210.67 905.6 1227.11 910.013 1255.58C911.606 1265.85 912.777 1270.28 920.997 1276.12C932.664 1284.4 946.639 1288.14 959.729 1291.38C990.246 1298.95 1021.65 1297.82 1052.11 1305.3C1064.52 1308.39 1080.72 1315.04 1066.55 1330.28C1050.03 1348.11 1025.97 1357.9 1006.17 1368.91C996.283 1374.4 986.1 1379.55 976.714 1386.25C969.506 1391.42 963.336 1398.04 955.963 1402.85Z" stroke="#85878D" stroke-width="2"/>
<path fill-rule="evenodd" clip-rule="evenodd" d="M877.242 1394.34C838.843 1416.48 797.141 1432.59 756.188 1447.1C710.7 1463.21 664.114 1476.54 616.913 1482.22C584.321 1486.15 549.594 1487.31 517.961 1475.28C497.956 1467.66 484.394 1451.66 467.18 1438.23C441.199 1417.94 413.09 1401.86 381.877 1405.77C346.884 1410.15 311.777 1413.43 276.554 1415.62C255.308 1416.95 233.98 1417.94 212.708 1417.02C199.259 1416.44 181.932 1415.47 170.231 1408.04C154.576 1398.09 213.38 1322.36 220.71 1311.32C238.889 1283.95 252.215 1255.23 260.002 1221.32C266.352 1193.65 253.38 1171.9 239.997 1151.2C231.677 1138.34 204.794 1106.01 213.211 1089.32C217.827 1080.11 233.041 1080.59 241.213 1080.12C256.785 1079.23 272.425 1080.16 287.998 1080.56C310.993 1081.19 335.471 1076.88 358.271 1080.35C408.802 1088.03 459.203 1094.67 510.046 1099.93C538.074 1102.83 566.27 1105.46 594.046 1111.05C604.018 1113.06 614.318 1115.18 623.766 1119.72C629.844 1122.64 633.158 1127.61 638.287 1131.68C662.745 1151.08 694.67 1161.07 722.215 1173.5C758.834 1190.03 795.648 1206.3 831.293 1225.83C850.041 1236.1 876.227 1247.9 889.127 1268.87C893.026 1275.2 891.364 1280.27 893.816 1286.35C896.637 1293.38 905.208 1295.47 910.743 1297.43C923.305 1301.87 975.887 1308.6 951.655 1334.68C940.093 1347.1 925.362 1355.07 912.328 1364.83C907.609 1368.37 903.008 1371.92 899.073 1376.7C892.492 1384.7 886.009 1389.26 877.242 1394.34Z" stroke="#85878D" stroke-width="2"/>
<path fill-rule="evenodd" clip-rule="evenodd" d="M793.366 1384.75C717.561 1420.58 628.722 1444.99 546.076 1440.26C518.592 1438.68 489.022 1433.42 465.198 1415.39C451.15 1404.74 439.924 1392.72 423.05 1388.87C410.868 1386.09 397.751 1389.24 385.497 1390.38C367.749 1392.04 349.99 1393.52 332.216 1394.71C310.181 1396.17 288.074 1397.3 265.997 1396.7C250.223 1396.27 228.439 1396.76 214.736 1386.42C198.376 1374.09 240.02 1316.26 245.879 1305.95C260.081 1280.98 270.037 1256.78 273.635 1226.68C274.694 1217.91 278.261 1208.92 277.799 1200.08C277.316 1191.05 272.756 1183.01 268.547 1175.92C263.042 1166.61 243.942 1144.55 249.41 1133.2C252.433 1126.94 263.777 1126.15 269.657 1124.82C280.687 1122.32 291.877 1120.97 302.974 1118.98C321.802 1115.58 340.496 1104.53 359.391 1104.84C410.2 1105.67 461.744 1124.89 511.535 1135.44C541.136 1141.74 570.938 1147.45 600.179 1155.98C609.431 1158.68 618.961 1161.47 627.755 1166.05C633.892 1169.24 637.835 1174.94 643.52 1178.52C665.318 1192.25 690.386 1200.59 713.794 1209.84C744.181 1221.87 774.672 1233.53 804.849 1246.33C823.764 1254.36 848.086 1261.42 864.385 1276.3C876.289 1287.17 868.153 1290.42 861.872 1300.55C858.664 1305.71 859.405 1310.79 858.012 1316.64C856.022 1324.98 850.399 1330.99 845.126 1336.39C837.853 1343.85 828.164 1350 822.217 1359.14C820.12 1362.36 820.217 1366.36 818.521 1369.17C813.587 1377.34 800.495 1381.38 793.366 1384.75Z" stroke="#85878D" stroke-width="2"/>
<path fill-rule="evenodd" clip-rule="evenodd" d="M712.77 1371.98C651.246 1394.51 582.79 1407.34 517.757 1401.38C495.13 1399.31 472.364 1394.49 451.287 1383.91C441.697 1379.11 434.499 1373.75 423.991 1373.47C399.609 1372.8 375.15 1375.13 350.774 1375.68C333.329 1376.08 315.797 1376.23 298.393 1374.52C286.756 1373.38 271.02 1372.01 261.487 1363.31C247.633 1350.63 272.641 1307.53 277.731 1295.63C286.166 1275.88 294.534 1253.93 291.189 1231.08C290.163 1224.1 288.347 1217.92 288.111 1210.8C287.885 1204.68 288.516 1199.02 286.735 1193.17C284.534 1185.91 274.745 1174.65 278.11 1167.97C280.404 1163.41 287.207 1163.2 291.733 1161.74C299.073 1159.37 306.239 1156.26 313.159 1152.45C320.445 1148.41 326.648 1142.18 334.196 1138.85C346.448 1133.44 360.163 1132.94 373.041 1132.96C424.427 1133.06 476.464 1145.43 526.546 1158.35C552.626 1165.08 578.85 1172.26 604.196 1182.47C611.892 1185.57 620.615 1188.68 627.382 1194.41C631.605 1197.98 634.468 1202.44 639.265 1205.13C680.246 1228.02 727.624 1236.53 771.128 1253.07C782.452 1257.37 845.207 1279.12 812.396 1299.58C792.462 1312.02 771.4 1317.67 753.211 1334.68C747.67 1339.85 743.976 1344.13 741.811 1352.01C740.384 1357.27 743.817 1354.6 739.024 1360.09C733.211 1366.69 719.938 1369.35 712.77 1371.98Z" stroke="#85878D" stroke-width="2"/>
<path fill-rule="evenodd" clip-rule="evenodd" d="M648.798 1358.66C576.768 1377.05 500.487 1377.92 427.32 1361.62C408.875 1357.52 389.679 1358.5 371.007 1357.45C352.866 1356.45 320.612 1358.53 307.435 1341.52C297.881 1329.19 308.248 1302.98 311.834 1289.18C316.403 1271.6 320.396 1253.45 312.894 1236.38C308.5 1226.38 302.481 1216.86 297.768 1206.96C295.514 1202.23 290.873 1194.98 292.808 1190.5C296.008 1183.11 310.98 1180 318.245 1176.51C341.465 1165.37 366.053 1162.53 390.877 1162.61C436.73 1162.75 482.819 1170.4 527.797 1180.77C548.491 1185.55 569.472 1190.64 589.43 1198.94C600.723 1203.63 609.053 1212.68 619.837 1218.05C654.561 1235.35 691.868 1244.59 727.188 1260.4C737.412 1264.98 775.598 1280.23 756.361 1298.2C737.736 1315.6 710.57 1313.53 691.204 1329.91C689.012 1331.78 686.301 1334.02 685.03 1337.05C684.279 1338.87 685.601 1342.31 685.03 1343.34C679.082 1354.55 657.941 1356.33 648.798 1358.66Z" stroke="#85878D" stroke-width="2"/>
<path fill-rule="evenodd" clip-rule="evenodd" d="M602.132 1346.51C565.178 1352.69 527.412 1354.22 489.836 1354.61C469.296 1354.82 446.73 1356.42 426.633 1350.07C414.288 1346.17 402.364 1342.75 389.638 1340.29C375.945 1337.64 353.899 1335.71 345.56 1321.34C339.331 1310.6 343.601 1288.53 343.827 1275.48C344.069 1261.16 341.661 1250.55 333.375 1240.3C328.164 1233.85 304.26 1210.43 307.022 1203.68C309.651 1197.24 326.307 1196.26 333.508 1194.59C356.27 1189.28 379.335 1187.44 402.488 1187.72C438.346 1188.16 474.337 1192.63 509.635 1200.29C524.228 1203.47 539.31 1206.77 553.249 1213.14C562.637 1217.43 570.466 1225.03 579.792 1229.47C606.499 1242.19 634.739 1250.83 661.538 1263.78C670.139 1267.95 698.163 1279.04 691.445 1296.12C685.843 1310.39 666.79 1314.73 657.428 1324.29C641.503 1340.6 622.44 1343.11 602.132 1346.51Z" stroke="#85878D" stroke-width="2"/>
<path fill-rule="evenodd" clip-rule="evenodd" d="M578.851 1338.31C549.538 1342.4 519.542 1344.19 489.798 1344.28C470.602 1344.33 450.351 1344.65 431.513 1339.39C422.051 1336.75 413.829 1330.57 404.874 1326.17C395.652 1321.64 382.927 1316.58 378.941 1306.19C375.196 1296.43 376.594 1282.19 373.305 1270.42C370.38 1259.98 364.258 1253.52 357.665 1246.47C353.464 1241.95 331.891 1222.42 334.386 1218.11C337.06 1213.49 350.016 1213.87 356.758 1213.23C375.333 1211.44 393.974 1210.87 412.599 1211.52C438.02 1212.47 463.635 1215.13 488.615 1221.13C506.335 1225.39 519.701 1235.53 536.223 1242.96C557.627 1252.62 579.799 1260.25 600.998 1270.81C611.562 1276.08 627.197 1282.85 632.607 1296.43C634.687 1301.64 636.706 1314.88 634.39 1320.09C631.608 1326.34 621.255 1329 616.367 1330.6C604.123 1334.62 591.311 1336.57 578.851 1338.31Z" stroke="#85878D" stroke-width="2"/>
<path fill-rule="evenodd" clip-rule="evenodd" d="M551.389 1328.32C514.745 1333.35 473.342 1337.61 436.586 1327.49C421.732 1323.41 406.939 1311.3 400.882 1294.8C397.744 1286.27 397.069 1276.12 392.382 1267.85C388.911 1261.74 384.495 1256.22 380.14 1251.07C377.686 1248.17 361.969 1232.26 365 1229.42C368.2 1226.42 376.051 1227.4 381.413 1227.32C394.258 1227.14 407.154 1227.74 419.958 1228.93C434.679 1230.3 449.748 1232.08 464.024 1236.88C475.54 1240.78 486.034 1248.98 497.249 1253.85C526.732 1266.76 557.799 1276.87 585.478 1295.98C591.366 1300.04 603.01 1306.12 595.936 1315.3C587.134 1326.73 562.711 1326.77 551.389 1328.32Z" stroke="#85878D" stroke-width="2"/>
<path fill-rule="evenodd" clip-rule="evenodd" d="M519.446 1319.25C493.352 1322.77 464.406 1324.43 438.209 1317.17C424.943 1313.5 413.108 1305.85 407.33 1291.05C403.196 1280.5 402.079 1268.72 396.431 1258.58C394.431 1255 387.082 1244.97 390.705 1242.77C398.457 1238.06 415.759 1243.49 426.514 1245.96C442.7 1249.7 456.215 1260.19 471.605 1266.41C495.213 1275.95 525.126 1281.04 546.64 1297.29C567.375 1313.01 527.059 1318.22 519.446 1319.25Z" stroke="#85878D" stroke-width="2"/>
<path fill-rule="evenodd" clip-rule="evenodd" d="M489.61 1310.64C467.47 1313.81 428.096 1315.37 415.465 1289.89C413.122 1285.16 406.651 1259.03 412.904 1256.7C418.058 1254.78 426.146 1257.95 431.969 1260.9C442.8 1266.37 452.963 1272.33 464.157 1276.84C473.687 1280.69 483.445 1284.23 492.85 1288.69C496.843 1290.56 504.345 1292.83 506.85 1297.1C513.59 1308.57 496.35 1309.68 489.61 1310.64Z" fill="#85878D"/>
</svg>
